<?xml version="1.0" standalone="no"?>
<!DOCTYPE svg PUBLIC "-//W3C//DTD SVG 20010904//EN"
 "http://www.w3.org/TR/2001/REC-SVG-20010904/DTD/svg10.dtd">
<svg version="1.0" xmlns="http://www.w3.org/2000/svg"
 width="3000.000000pt" height="3000.000000pt" viewBox="0 0 3000.000000 3000.000000"
 preserveAspectRatio="xMidYMid meet">
<metadata>
Created by potrace 1.14, written by Peter Selinger 2001-2017
</metadata>
<g transform="translate(0.000000,3000.000000) scale(0.100000,-0.100000)"
fill="#000000" stroke="none">
<path d="M22950 29549 c-133 -27 -243 -54 -305 -74 -109 -36 -363 -147 -416
-183 -14 -9 -49 -30 -79 -47 -29 -16 -67 -42 -84 -56 -17 -14 -52 -38 -78 -53
-27 -16 -48 -32 -48 -36 0 -5 -17 -18 -37 -31 -21 -12 -42 -27 -48 -33 -5 -6
-23 -21 -39 -33 -91 -71 -288 -261 -436 -423 -41 -45 -85 -92 -97 -105 -13
-12 -23 -27 -23 -33 0 -6 -6 -15 -14 -19 -8 -4 -24 -27 -36 -50 -12 -24 -26
-43 -30 -43 -9 0 -34 -40 -46 -72 -3 -10 -10 -18 -15 -18 -5 0 -14 -10 -20
-22 -5 -13 -23 -45 -39 -73 -26 -44 -50 -90 -55 -105 -3 -9 -18 -44 -42 -99
-27 -63 -43 -144 -50 -258 -5 -72 -2 -93 26 -178 42 -129 105 -241 207 -363
79 -94 319 -317 457 -425 80 -62 312 -216 452 -301 61 -37 117 -71 125 -76 8
-5 60 -34 115 -65 55 -30 141 -78 190 -106 50 -27 123 -66 163 -85 39 -20 72
-39 72 -43 0 -4 -39 -14 -87 -21 -49 -7 -142 -23 -208 -36 -66 -14 -145 -29
-175 -35 -74 -14 -241 -55 -315 -78 -33 -10 -80 -24 -105 -31 -90 -26 -367
-144 -420 -180 -31 -21 -69 -44 -86 -53 -38 -19 -191 -168 -204 -199 -6 -13
-24 -47 -40 -76 -16 -29 -32 -72 -35 -95 -4 -23 -9 -57 -11 -75 -7 -46 15
-185 31 -198 11 -8 57 -4 172 13 178 27 340 49 458 64 44 5 87 11 95 14 8 2
56 9 105 15 129 14 523 69 655 90 36 6 153 22 260 35 225 29 337 44 580 80 96
14 198 28 225 30 28 2 160 20 295 40 333 48 444 63 590 80 211 25 465 69 810
140 78 16 202 51 232 66 10 5 28 9 40 9 13 0 38 9 56 20 18 11 41 20 51 20 25
0 152 54 219 94 30 17 73 42 97 56 36 22 97 68 130 100 51 50 65 67 65 77 0 7
4 13 9 13 14 0 58 96 73 160 16 64 6 196 -15 218 -12 11 -27 11 -93 -2 -262
-49 -422 -60 -758 -53 -341 7 -652 40 -771 82 -22 7 -85 25 -140 39 -130 33
-387 120 -578 197 -240 96 -599 262 -637 294 -8 7 -44 27 -80 46 -345 174
-809 444 -1010 588 -222 158 -309 242 -357 347 -22 49 -25 66 -20 127 3 50 9
72 21 79 9 5 16 15 16 21 0 7 24 31 53 52 113 85 379 114 742 81 281 -26 539
-64 605 -91 19 -7 92 -29 161 -49 296 -82 644 -247 979 -464 63 -41 131 -87
151 -103 42 -33 67 -37 76 -11 3 9 11 23 17 31 5 7 11 19 13 27 7 32 10 41 25
74 32 71 84 225 89 265 0 2 7 28 15 57 24 93 35 247 24 345 -9 80 -68 289 -89
318 -4 5 -14 26 -21 45 -35 91 -164 271 -269 378 -53 53 -176 148 -234 181
-97 54 -130 70 -207 103 -134 56 -273 96 -450 129 -90 17 -161 22 -330 24
-118 2 -235 -1 -260 -6z"/>
<path d="M24610 24922 c0 -5 -19 -18 -42 -31 -24 -12 -56 -31 -73 -42 -16 -10
-38 -22 -47 -25 -10 -4 -18 -10 -18 -15 0 -5 -7 -9 -16 -9 -8 0 -30 -11 -48
-25 -18 -14 -38 -25 -43 -25 -6 0 -16 -7 -23 -15 -7 -8 -19 -15 -26 -15 -8 0
-25 -10 -38 -21 -28 -24 -62 -46 -88 -55 -10 -3 -18 -10 -18 -13 0 -4 -19 -17
-42 -30 -50 -25 -81 -44 -88 -52 -11 -12 -241 -149 -250 -149 -6 0 -10 -3 -10
-8 0 -4 -20 -18 -45 -32 -25 -14 -45 -28 -45 -32 0 -5 -9 -8 -20 -8 -11 0 -20
-5 -20 -10 0 -6 -8 -13 -17 -17 -10 -3 -31 -16 -48 -27 -34 -24 -57 -38 -102
-61 -18 -9 -37 -23 -44 -31 -6 -8 -17 -14 -24 -14 -7 0 -18 -6 -24 -14 -7 -8
-27 -22 -46 -31 -19 -9 -35 -20 -35 -25 0 -6 -9 -10 -20 -10 -11 0 -20 -4 -20
-8 0 -5 -18 -17 -40 -28 -22 -10 -40 -22 -40 -27 0 -4 -10 -12 -22 -17 -24
-10 -59 -31 -68 -40 -10 -10 -45 -31 -62 -36 -10 -4 -18 -10 -18 -15 0 -5 -10
-13 -22 -18 -13 -5 -47 -25 -77 -45 -29 -20 -57 -36 -62 -36 -5 0 -9 -3 -9 -8
0 -7 -30 -25 -62 -38 -10 -3 -18 -10 -18 -14 0 -5 -20 -19 -45 -31 -25 -12
-45 -26 -45 -31 0 -4 -6 -8 -14 -8 -7 0 -19 -6 -25 -14 -7 -8 -27 -22 -46 -31
-19 -9 -35 -20 -35 -24 0 -5 -8 -11 -17 -15 -18 -5 -53 -26 -63 -36 -14 -14
-102 -70 -109 -70 -5 0 -11 -4 -13 -8 -2 -7 -46 -36 -143 -95 -11 -7 -22 -14
-25 -17 -11 -11 -101 -70 -107 -70 -3 0 -30 -18 -59 -40 -29 -22 -56 -40 -60
-40 -4 0 -21 -11 -38 -23 -17 -13 -35 -26 -41 -28 -28 -11 -215 -143 -240
-169 -20 -20 -38 -60 -57 -123 -30 -99 -117 -403 -147 -514 -10 -37 -43 -153
-74 -258 -30 -104 -67 -235 -82 -290 -15 -55 -36 -127 -46 -160 -29 -93 -69
-232 -94 -325 -12 -47 -44 -155 -70 -240 -25 -85 -57 -195 -71 -245 -13 -49
-38 -137 -55 -195 -68 -227 -98 -329 -124 -420 -32 -109 -67 -231 -120 -410
-20 -69 -40 -138 -45 -155 -40 -141 -55 -191 -80 -265 -28 -83 -66 -205 -130
-420 -17 -58 -35 -116 -40 -130 -4 -14 -24 -77 -44 -140 -19 -63 -58 -189 -86
-280 -29 -91 -64 -205 -80 -255 -78 -255 -203 -644 -328 -1025 -77 -234 -149
-456 -161 -495 -12 -38 -28 -86 -35 -105 -8 -19 -22 -62 -32 -95 -9 -33 -21
-64 -26 -69 -4 -6 -8 -19 -8 -30 -1 -12 -9 -39 -20 -61 -11 -22 -20 -47 -20
-55 0 -8 -7 -28 -15 -44 -8 -15 -15 -37 -15 -47 0 -10 -4 -21 -10 -24 -5 -3
-10 -16 -10 -28 0 -12 -7 -35 -15 -51 -8 -15 -15 -37 -15 -47 0 -10 -4 -20 -9
-23 -5 -4 -17 -32 -26 -64 -10 -31 -22 -72 -27 -89 -5 -18 -14 -35 -19 -38 -5
-4 -9 -19 -9 -36 0 -16 -3 -29 -8 -29 -4 0 -12 -15 -18 -32 -21 -61 -102 -283
-124 -338 -12 -30 -28 -75 -36 -100 -8 -25 -21 -59 -29 -77 -8 -17 -15 -35
-15 -39 0 -16 -70 -200 -90 -236 -6 -10 -10 -23 -10 -30 0 -10 -50 -149 -80
-223 -21 -53 -62 -165 -107 -295 -8 -25 -19 -49 -24 -54 -5 -6 -9 -19 -9 -31
0 -11 -6 -29 -13 -40 -13 -21 -24 -47 -102 -255 -26 -69 -53 -138 -60 -155 -8
-16 -53 -129 -101 -250 -47 -121 -94 -238 -104 -260 -10 -22 -30 -71 -44 -110
-15 -38 -36 -89 -47 -112 -10 -24 -19 -45 -19 -48 0 -6 -12 -35 -55 -130 -19
-44 -66 -158 -69 -170 -2 -5 -15 -37 -31 -70 -15 -33 -41 -94 -57 -135 -16
-41 -38 -93 -48 -115 -16 -38 -138 -316 -165 -380 -18 -40 -62 -140 -85 -190
-58 -127 -78 -175 -72 -175 4 0 2 -4 -4 -8 -6 -4 -34 -59 -62 -122 -63 -145
-106 -240 -142 -311 -16 -32 -26 -60 -23 -63 4 -3 1 -6 -5 -6 -7 0 -12 -4 -12
-9 0 -13 -50 -120 -210 -456 -65 -136 -77 -164 -78 -179 0 -5 -4 -12 -9 -15
-10 -7 -64 -119 -67 -139 -1 -7 -8 -18 -14 -24 -7 -7 -12 -15 -12 -19 0 -4
-35 -81 -79 -171 -213 -443 -293 -612 -291 -617 1 -2 -2 -7 -7 -10 -11 -8 -59
-113 -55 -119 2 -3 -1 -8 -6 -11 -13 -8 -52 -87 -52 -105 0 -8 -3 -16 -8 -18
-4 -1 -52 -91 -106 -198 -84 -166 -133 -260 -190 -365 -14 -24 -89 -138 -96
-145 -3 -3 -28 -32 -55 -64 -28 -33 -70 -78 -94 -100 -24 -23 -49 -46 -55 -52
-22 -21 -164 -114 -174 -114 -6 0 -17 -6 -24 -14 -16 -15 -177 -80 -227 -91
-76 -16 -174 -8 -249 21 -77 30 -169 106 -207 172 -11 17 -22 32 -25 32 -4 0
-12 16 -20 35 -8 19 -18 35 -24 35 -5 0 -6 3 -3 7 4 3 3 11 -3 18 -8 10 -46
111 -106 283 -16 45 -41 175 -50 252 -2 25 -7 62 -10 83 -2 22 -7 62 -10 90
-2 29 -8 88 -13 132 -21 206 -18 2542 4 2700 2 16 7 71 10 120 3 50 8 101 9
115 2 14 6 79 10 145 4 66 9 143 11 170 4 47 15 185 20 265 1 19 5 89 9 155 6
114 13 203 22 270 8 65 14 189 19 385 3 113 8 239 10 280 2 41 7 127 11 190 3
63 7 129 9 145 2 17 6 71 9 120 11 160 18 232 31 360 3 22 9 83 15 135 12 113
17 160 30 260 5 41 12 100 15 130 7 65 13 122 20 170 2 19 7 60 10 90 3 30 10
93 16 140 5 47 12 103 14 125 3 22 9 78 15 125 5 47 12 112 15 145 3 33 7 67
10 75 2 8 7 53 10 100 4 47 8 87 10 90 2 3 6 37 9 75 4 39 9 77 11 85 2 8 7
51 10 95 4 43 8 82 10 85 1 3 6 39 9 80 4 41 15 152 26 245 10 94 22 197 25
230 6 64 10 101 25 216 5 40 8 76 8 79 -1 5 8 88 17 155 3 17 9 66 15 110 6
44 12 91 14 105 5 24 27 201 32 250 1 14 3 25 4 25 3 0 7 27 14 90 4 33 13
105 21 160 8 55 17 123 20 150 3 28 12 93 20 145 8 52 17 120 21 150 3 30 8
66 10 80 2 14 6 57 9 95 3 39 9 106 15 150 5 44 12 116 15 160 3 44 8 91 10
105 2 14 6 61 10 105 8 100 14 160 20 205 3 19 7 73 10 120 3 47 13 137 21
200 8 63 17 131 19 150 2 19 7 46 10 60 21 100 25 404 7 505 -7 33 -14 78 -17
100 -4 22 -11 58 -17 80 -6 22 -11 45 -13 50 -7 34 -19 71 -24 80 -3 6 -6 17
-8 25 -1 9 -18 54 -36 100 -66 164 -188 370 -277 470 -17 18 -30 36 -30 40 0
11 -194 205 -250 250 -30 25 -57 48 -60 52 -7 9 -70 53 -175 122 -91 60 -250
146 -270 146 -7 0 -28 -19 -47 -42 -18 -24 -37 -48 -43 -55 -42 -47 -86 -103
-85 -108 0 -3 -10 -16 -23 -28 -13 -12 -50 -56 -83 -97 -32 -41 -61 -77 -64
-80 -3 -3 -50 -61 -105 -130 -55 -69 -102 -127 -105 -130 -3 -3 -25 -32 -50
-64 -25 -33 -57 -73 -72 -90 -16 -17 -28 -36 -28 -43 0 -7 -3 -13 -7 -13 -5 0
-39 -42 -78 -93 -38 -50 -80 -106 -95 -122 -14 -17 -34 -43 -45 -59 -11 -15
-28 -37 -37 -48 -10 -12 -18 -24 -18 -27 0 -3 -10 -17 -23 -31 -41 -46 -87
-108 -87 -118 0 -6 -4 -12 -9 -14 -8 -3 -148 -187 -256 -338 -22 -30 -43 -56
-47 -58 -5 -2 -8 -10 -8 -17 0 -7 -3 -15 -8 -17 -11 -5 -112 -146 -112 -157 0
-5 -3 -11 -8 -13 -15 -6 -71 -85 -65 -92 3 -3 2 -6 -4 -6 -6 0 -27 -26 -48
-57 -21 -31 -42 -61 -46 -67 -30 -36 -79 -106 -75 -106 3 0 -3 -11 -15 -24
-28 -32 -372 -536 -399 -584 -8 -15 -18 -29 -21 -32 -7 -6 -149 -222 -249
-380 -40 -63 -91 -144 -114 -180 -110 -170 -176 -278 -176 -288 0 -7 -4 -12
-9 -12 -5 0 -16 -15 -25 -32 -9 -18 -37 -64 -61 -103 -25 -38 -57 -90 -70
-115 -14 -25 -33 -57 -43 -72 -9 -15 -59 -98 -111 -185 -51 -87 -104 -174
-116 -193 -13 -19 -58 -96 -101 -170 -42 -74 -101 -176 -131 -227 -29 -50 -53
-94 -53 -98 0 -3 -5 -11 -10 -18 -11 -12 -115 -193 -174 -302 -49 -90 -137
-248 -147 -265 -5 -8 -17 -31 -27 -50 -9 -19 -20 -37 -23 -40 -3 -3 -23 -39
-45 -80 -21 -41 -70 -133 -109 -205 -39 -71 -86 -161 -105 -200 -19 -38 -38
-72 -41 -75 -3 -3 -77 -147 -165 -320 -87 -173 -161 -317 -164 -320 -10 -10
-110 -218 -110 -229 0 -6 -3 -11 -8 -11 -4 0 -14 -15 -21 -32 -8 -18 -59 -125
-114 -238 -55 -113 -100 -211 -100 -217 0 -7 -3 -13 -6 -13 -3 0 -12 -15 -20
-32 -19 -45 -139 -297 -157 -330 -8 -14 -14 -33 -14 -41 0 -9 -3 -17 -8 -19
-4 -1 -25 -41 -46 -88 -21 -47 -60 -128 -86 -180 -25 -52 -47 -97 -47 -100 0
-6 -30 -71 -76 -170 -17 -36 -31 -67 -32 -70 -1 -3 -18 -40 -38 -83 -20 -43
-37 -80 -37 -83 0 -2 -15 -37 -34 -76 -88 -187 -126 -271 -126 -279 0 -5 -9
-23 -19 -41 -11 -17 -18 -35 -15 -40 3 -4 0 -8 -5 -8 -6 0 -11 -7 -11 -15 0
-9 -7 -27 -16 -40 -9 -13 -17 -30 -18 -37 -2 -7 -17 -44 -34 -81 -17 -37 -55
-123 -84 -190 -29 -67 -55 -124 -58 -127 -8 -8 -52 -114 -53 -127 0 -7 -3 -13
-7 -13 -4 0 -13 -19 -20 -42 -8 -24 -17 -47 -21 -53 -3 -5 -21 -44 -39 -85
-17 -41 -42 -99 -56 -128 -13 -29 -24 -54 -24 -57 0 -2 -16 -38 -35 -79 -19
-42 -35 -79 -35 -82 0 -2 -16 -39 -35 -80 -19 -41 -35 -77 -35 -80 0 -3 -13
-35 -30 -71 -16 -35 -30 -67 -30 -69 0 -3 -12 -31 -26 -62 -14 -31 -34 -78
-44 -103 -10 -26 -28 -68 -40 -95 -12 -27 -27 -60 -32 -74 -15 -36 -33 -78
-59 -135 -12 -27 -27 -66 -34 -87 -8 -20 -25 -60 -38 -90 -40 -86 -67 -147
-88 -202 -11 -28 -28 -69 -38 -91 -10 -22 -24 -56 -31 -76 -11 -32 -47 -61
-90 -74 -15 -5 -47 -17 -60 -24 -8 -4 -36 -14 -63 -22 -26 -7 -47 -16 -47 -20
0 -4 -10 -9 -23 -12 -12 -3 -58 -19 -102 -37 -44 -17 -116 -45 -160 -61 -44
-16 -93 -36 -110 -43 -16 -8 -61 -24 -100 -36 -38 -13 -80 -30 -93 -38 -12 -8
-22 -12 -22 -9 0 3 -24 -4 -53 -15 -28 -11 -88 -33 -132 -49 -44 -16 -87 -33
-95 -36 -8 -3 -17 -7 -20 -8 -32 -8 -88 -30 -99 -39 -8 -6 -15 -9 -15 -7 -1 6
-109 -30 -123 -42 -7 -5 -13 -6 -13 -1 0 4 -5 3 -12 -4 -7 -7 -18 -12 -24 -12
-7 0 -25 -5 -41 -12 -15 -6 -32 -12 -38 -14 -16 -4 -128 -45 -150 -54 -11 -4
-40 -15 -65 -24 -25 -8 -58 -21 -75 -27 -58 -23 -55 -25 -71 51 -8 40 -8 143
1 170 3 10 8 29 10 42 7 36 71 161 100 194 67 76 147 151 220 206 44 34 85 66
90 72 6 6 18 16 27 21 9 6 56 37 104 70 48 33 92 62 98 65 11 5 135 81 184
112 15 10 41 24 57 33 17 8 48 26 70 39 22 14 61 34 87 46 27 13 48 29 48 36
0 8 -3 14 -7 14 -7 0 -106 -39 -258 -100 -38 -16 -100 -40 -136 -54 -37 -14
-88 -35 -115 -47 -27 -12 -54 -23 -60 -24 -6 -2 -41 -17 -78 -34 -37 -17 -69
-31 -72 -31 -2 0 -37 -15 -76 -33 -40 -19 -102 -47 -138 -63 -36 -15 -68 -33
-72 -39 -4 -5 -8 -7 -8 -3 0 8 -303 -145 -342 -173 -14 -11 -29 -19 -32 -19
-10 0 -177 -110 -236 -155 -112 -86 -261 -250 -344 -380 -20 -30 -52 -79 -71
-108 -18 -30 -40 -67 -47 -83 -7 -16 -15 -31 -18 -34 -22 -18 -217 -450 -203
-450 3 0 -1 -10 -9 -23 -8 -12 -24 -51 -37 -87 -12 -36 -26 -74 -31 -85 -14
-31 -118 -330 -125 -360 -1 -5 -5 -17 -8 -25 -4 -8 -8 -24 -10 -35 -1 -11 -6
-25 -9 -31 -4 -6 -9 -21 -12 -35 -3 -13 -13 -51 -22 -84 -9 -33 -18 -67 -19
-75 -2 -8 -8 -30 -14 -48 -5 -18 -10 -33 -10 -35 1 -3 -11 -57 -22 -102 -5
-22 -11 -56 -14 -75 -2 -19 -8 -57 -13 -85 -13 -70 -13 -64 -17 -240 -3 -93 0
-179 6 -205 6 -25 13 -55 15 -68 14 -73 90 -217 138 -262 99 -92 123 -105 233
-119 63 -8 237 8 308 29 17 5 44 11 60 14 46 7 161 36 254 63 47 14 89 26 95
27 18 4 129 38 161 50 17 6 35 11 40 12 6 0 57 16 115 34 58 18 110 35 115 36
6 1 44 12 85 24 130 36 374 100 400 105 14 2 59 13 100 23 41 11 95 23 119 27
40 7 43 6 36 -11 -4 -11 -11 -32 -16 -49 -5 -16 -13 -39 -19 -50 -5 -11 -28
-72 -50 -135 -23 -63 -49 -137 -59 -165 -58 -159 -73 -200 -106 -295 -20 -58
-45 -125 -55 -150 -10 -25 -25 -70 -35 -100 -10 -30 -21 -60 -26 -66 -5 -6
-10 -19 -12 -30 -4 -20 -6 -24 -44 -124 -13 -35 -25 -72 -26 -82 -1 -10 -6
-18 -11 -18 -5 0 -6 -3 -3 -7 4 -3 2 -11 -3 -18 -5 -6 -11 -20 -13 -31 -2 -10
-9 -30 -14 -44 -6 -14 -18 -45 -26 -70 -9 -25 -30 -83 -48 -130 -31 -86 -63
-174 -94 -265 -9 -27 -20 -59 -25 -70 -4 -11 -13 -36 -20 -55 -7 -19 -16 -44
-21 -55 -10 -23 -38 -102 -44 -125 -2 -8 -16 -46 -30 -85 -39 -103 -106 -288
-109 -300 -2 -5 -6 -17 -9 -25 -14 -32 -69 -187 -79 -220 -15 -51 -25 -60 -61
-53 -18 3 -91 7 -163 9 -130 3 -132 2 -210 -32 -174 -75 -330 -220 -495 -459
-22 -30 -39 -57 -39 -60 0 -2 -13 -23 -29 -47 -46 -69 -86 -142 -170 -313 -72
-145 -170 -365 -175 -390 -1 -5 -7 -20 -14 -32 -12 -22 -72 -180 -76 -198 -1
-5 -4 -14 -7 -20 -7 -11 -59 -167 -63 -188 -2 -7 -9 -25 -15 -42 -13 -31 -48
-142 -56 -182 -3 -12 -10 -34 -15 -49 -6 -15 -8 -29 -6 -32 3 -2 -1 -16 -8
-31 -8 -14 -17 -40 -20 -56 -3 -17 -10 -48 -16 -70 -6 -22 -13 -50 -16 -63 -2
-12 -13 -59 -24 -105 -10 -45 -21 -93 -24 -107 -3 -14 -8 -36 -11 -50 -3 -14
-7 -36 -10 -50 -3 -14 -7 -36 -10 -50 -12 -65 -15 -78 -20 -120 -4 -25 -10
-61 -15 -80 -4 -19 -11 -62 -15 -95 -4 -32 -8 -67 -10 -77 -2 -9 -7 -48 -10
-85 -4 -37 -9 -75 -10 -83 -10 -56 -19 -241 -17 -379 4 -309 65 -508 194 -633
76 -72 125 -91 238 -92 146 -1 257 39 409 148 64 46 218 200 226 227 4 11 10
19 14 19 9 0 121 165 121 179 0 5 3 11 8 13 8 3 97 151 127 213 11 22 23 42
26 45 4 3 41 75 83 160 42 85 84 167 92 183 8 15 12 27 8 27 -3 0 -2 6 4 13 8
10 39 82 139 322 14 33 28 67 32 75 5 8 47 110 96 225 48 116 93 224 101 240
7 17 45 107 84 200 39 94 84 199 101 234 17 35 32 69 34 75 2 13 12 37 35 91
10 22 30 69 45 105 14 36 37 89 51 118 13 29 24 58 24 65 0 7 4 17 9 23 8 8
131 299 131 309 0 3 13 34 30 70 17 36 30 67 30 69 0 2 8 21 17 42 9 22 17 41
18 44 0 3 3 10 7 15 3 6 29 66 58 135 28 69 60 144 71 167 10 24 19 45 19 48
0 2 11 28 24 57 13 29 43 100 67 158 23 58 46 110 50 115 4 6 21 46 39 90 18
44 38 94 46 111 39 90 91 213 135 324 58 145 59 147 93 222 14 31 26 60 26 64
0 4 8 25 19 48 10 23 28 64 39 91 11 28 33 82 50 120 16 39 46 113 66 165 21
52 41 104 46 115 20 44 192 481 195 495 1 8 10 31 18 50 13 29 80 200 154 395
9 22 21 54 28 70 7 17 24 62 38 100 41 114 97 269 107 290 5 11 23 61 40 110
18 50 36 99 42 110 5 12 10 27 12 35 2 8 9 29 15 45 7 17 14 37 17 45 18 72
66 171 82 168 4 0 9 1 12 2 3 1 12 3 20 5 39 8 157 49 169 59 8 6 16 10 18 8
6 -6 68 10 82 22 8 6 16 10 18 8 2 -2 20 2 41 8 20 6 50 14 66 16 16 3 39 9
50 14 12 4 26 9 31 10 6 1 19 7 30 13 11 6 27 11 35 12 15 2 132 38 185 58 17
7 32 12 35 12 3 1 30 9 60 20 30 10 60 19 65 20 6 1 17 4 25 7 51 20 110 38
143 44 20 3 37 10 37 15 0 5 3 8 8 7 4 -2 34 6 67 16 102 31 369 117 390 126
11 5 52 18 90 30 39 11 77 24 85 27 8 3 20 7 26 8 6 2 47 15 90 30 43 15 90
29 103 32 14 2 29 7 35 11 6 3 16 7 21 8 6 1 44 14 85 29 41 15 81 27 88 27 6
1 12 6 12 11 0 6 3 8 6 5 3 -4 49 9 102 27 53 18 131 43 172 55 41 13 80 26
85 29 6 3 12 6 15 6 10 1 85 28 95 34 6 3 19 7 30 8 11 2 24 8 29 13 6 6 16
10 22 10 7 0 25 5 41 12 15 6 30 12 33 13 3 1 20 6 38 10 17 4 32 12 32 17 0
5 4 7 9 4 7 -5 109 31 226 79 11 4 28 10 38 11 10 2 34 11 55 21 20 9 39 17
42 18 21 5 121 40 145 50 32 14 67 27 75 30 27 7 61 19 89 32 18 8 39 16 45
17 6 1 16 4 21 8 6 3 25 9 43 13 17 3 32 11 32 17 0 6 3 9 6 6 4 -5 73 18 169
57 11 4 61 23 110 40 102 37 205 77 250 95 17 7 37 14 45 16 9 2 34 11 55 20
22 10 42 18 45 19 3 1 12 5 20 8 33 15 103 37 115 37 9 0 10 -13 5 -47 -4 -27
-11 -84 -14 -128 -4 -44 -9 -87 -11 -95 -2 -8 -7 -51 -10 -95 -4 -44 -8 -82
-10 -85 -2 -3 -6 -54 -10 -115 -3 -60 -8 -123 -10 -140 -2 -16 -6 -75 -10
-130 -3 -55 -8 -131 -11 -170 -9 -111 -12 -890 -3 -995 16 -200 19 -237 24
-290 7 -68 12 -111 21 -175 9 -62 10 -69 13 -75 1 -3 4 -21 6 -40 3 -19 7 -46
10 -60 2 -13 7 -42 10 -65 3 -22 12 -62 19 -90 8 -27 24 -93 37 -145 12 -52
25 -99 28 -105 3 -5 7 -18 8 -29 3 -16 74 -243 90 -286 3 -8 7 -19 8 -25 2 -5
11 -37 21 -70 10 -33 19 -62 19 -65 22 -82 29 -100 35 -100 3 0 7 -6 7 -14 0
-21 45 -130 57 -138 6 -4 8 -8 4 -8 -7 0 64 -143 107 -215 13 -22 27 -47 31
-55 13 -26 86 -133 131 -190 23 -30 51 -65 60 -78 27 -35 123 -141 169 -187
79 -78 162 -155 167 -155 3 0 20 -14 38 -32 40 -36 167 -130 171 -126 2 2 15
-7 28 -20 33 -31 188 -123 325 -192 103 -52 127 -63 230 -106 47 -20 203 -75
225 -79 8 -2 15 -4 15 -5 0 -2 -7 0 145 -40 63 -16 140 -34 170 -40 30 -5 66
-12 80 -15 14 -3 50 -8 80 -11 30 -3 57 -7 60 -9 40 -25 779 -25 820 0 3 2 35
7 70 10 36 4 67 8 70 10 3 2 26 6 50 10 25 3 79 15 120 26 98 26 98 26 151 38
26 6 59 16 75 22 16 6 36 12 44 14 33 7 115 40 118 48 2 4 8 4 13 1 6 -3 16 0
24 6 8 7 15 9 15 5 0 -4 10 -1 23 7 12 8 55 27 95 43 39 15 72 32 72 37 0 4 3
7 8 6 10 -4 106 43 114 56 4 6 8 7 8 3 0 -5 12 0 28 11 15 11 37 23 50 26 12
4 22 12 22 17 0 5 7 9 15 9 8 0 15 5 15 12 0 6 3 9 6 5 6 -5 57 28 199 127 16
12 66 50 110 85 44 35 94 74 110 87 159 123 191 148 195 154 3 3 15 13 27 21
95 65 533 506 533 538 0 6 4 11 8 11 23 0 252 318 306 426 44 88 157 330 161
344 0 3 13 30 27 60 49 101 86 185 86 194 0 5 4 12 9 15 5 3 22 35 38 71 28
64 63 140 152 330 86 182 166 365 166 378 0 6 4 12 9 12 4 0 8 5 8 11 0 6 22
57 48 112 27 56 64 140 83 187 19 47 37 87 42 88 4 2 4 8 1 13 -3 6 1 20 8 32
8 12 20 36 26 52 14 40 44 116 77 195 14 36 34 86 42 113 9 26 20 47 25 47 4
0 8 7 8 16 0 8 25 78 55 154 30 76 55 144 55 149 0 6 5 11 10 11 11 0 16 10
55 115 15 39 37 97 50 130 94 242 129 332 161 420 20 55 47 129 61 165 13 36
35 94 48 130 13 36 35 94 48 130 13 36 43 117 66 180 22 63 46 124 51 135 6
11 19 47 29 80 11 33 35 103 54 155 85 231 282 784 312 875 7 22 54 159 105
305 50 146 116 337 146 425 76 222 456 1365 539 1620 124 382 161 498 210 650
26 83 55 175 65 205 11 30 40 123 65 205 26 83 55 175 65 205 22 66 54 169
110 350 23 74 68 218 100 320 32 102 75 239 95 305 20 66 47 154 60 195 13 41
42 136 64 210 23 74 55 178 71 230 58 188 79 257 125 410 26 85 62 205 80 265
18 61 48 157 65 215 17 58 46 155 65 215 48 159 79 263 121 405 20 69 47 159
59 200 84 283 120 405 140 475 67 234 95 327 115 390 12 39 30 99 40 135 26
91 78 271 145 500 31 107 65 224 75 260 10 36 44 153 75 260 31 107 63 220 71
250 8 30 22 75 30 100 9 25 28 92 44 150 16 58 47 168 69 245 94 329 172 606
236 835 14 52 33 118 41 145 9 28 28 97 44 155 28 103 44 160 121 430 21 74
56 200 78 280 22 80 50 179 61 220 21 72 60 218 94 345 9 33 20 71 25 85 5 14
16 52 25 85 9 33 27 101 42 150 14 50 39 142 55 205 16 63 36 135 44 160 14
45 43 150 115 420 21 80 44 161 50 180 6 19 24 85 40 145 35 134 56 210 69
253 l10 32 -100 0 c-54 0 -99 -4 -99 -8z m-10790 -5208 c-21 -163 -86 -651
-94 -714 -3 -19 -10 -64 -15 -100 -13 -80 -40 -273 -52 -360 -4 -36 -20 -141
-34 -235 -31 -208 -81 -551 -100 -700 -8 -60 -24 -175 -35 -255 -35 -251 -50
-359 -76 -555 -13 -104 -27 -206 -29 -225 -3 -19 -9 -69 -15 -110 -5 -41 -25
-194 -44 -340 -20 -146 -38 -285 -41 -310 -4 -41 -47 -382 -60 -475 -9 -67
-105 -831 -121 -965 -8 -69 -17 -141 -19 -160 -3 -19 -19 -150 -35 -290 -17
-140 -39 -322 -50 -405 -10 -82 -22 -177 -25 -210 -13 -114 -76 -619 -78 -621
-12 -9 -61 -29 -139 -58 -51 -19 -110 -41 -130 -50 -21 -9 -39 -16 -40 -15 -2
0 -29 -10 -60 -24 -32 -14 -58 -23 -58 -20 0 3 -6 0 -13 -6 -8 -6 -56 -26
-108 -45 -52 -20 -141 -53 -199 -75 -58 -22 -143 -54 -190 -71 -47 -17 -98
-37 -115 -45 -16 -8 -70 -30 -120 -49 -49 -19 -137 -53 -195 -76 -58 -22 -134
-52 -170 -64 -132 -48 -286 -107 -325 -126 -22 -10 -67 -28 -100 -38 -33 -11
-80 -29 -105 -40 -25 -12 -119 -49 -210 -83 -91 -34 -199 -75 -240 -91 -41
-16 -83 -31 -92 -33 -9 -2 -26 -8 -37 -14 -11 -6 -55 -24 -98 -40 -43 -16
-136 -52 -208 -80 -71 -28 -157 -61 -190 -72 -33 -12 -73 -27 -90 -35 -16 -7
-73 -29 -125 -49 -52 -20 -135 -51 -183 -70 l-89 -34 7 27 c3 14 14 44 24 67
10 22 33 78 50 125 18 47 43 110 56 140 13 30 38 91 55 135 17 44 38 94 45
110 21 46 86 205 102 250 8 21 25 62 37 90 13 27 45 102 71 165 26 63 54 131
62 150 8 19 20 46 28 60 7 14 27 60 44 102 17 42 39 96 50 120 101 221 231
511 231 515 0 2 32 70 70 149 39 80 70 147 70 149 0 4 78 167 195 410 156 324
556 1118 690 1370 24 44 70 132 102 195 62 118 128 243 169 318 13 23 20 42
16 42 -4 0 -2 4 4 8 11 7 71 114 147 262 19 36 43 81 54 100 11 19 41 76 68
125 59 109 133 245 145 265 38 63 100 174 111 199 8 17 17 31 21 31 5 0 8 4 8
10 0 5 46 90 102 187 124 218 120 211 207 360 39 67 71 126 71 131 0 6 3 12 8
14 6 2 85 129 102 163 4 8 62 104 155 256 39 64 101 167 110 181 81 137 546
858 582 903 8 10 40 57 58 86 56 90 437 630 442 626 2 -3 -5 -76 -17 -163z"/>
</g>
</svg>
